<svg xmlns="http://www.w3.org/2000/svg" xmlns:xlink="http://www.w3.org/1999/xlink" width="840" height="474.20000000000005"><rect width="840" height="474.20000000000005" rx="0" ry="0" class="a"></rect><svg height="434.20000000000005" viewBox="0 0 80 43.42" width="800" x="20" xmlns="http://www.w3.org/2000/svg" xmlns:xlink="http://www.w3.org/1999/xlink" y="20"><style>.a{fill:rgb(40,45,53)}.b{font-family:'Fira Code',Monaco,Consolas,Menlo,'Bitstream Vera Sans Mono','Powerline Symbols',monospace}.c{fill:rgb(185,192,203);white-space:pre}.d{fill:transparent}</style><g font-family="&#x27;Fira Code&#x27;,Monaco,Consolas,Menlo,&#x27;Bitstream Vera Sans Mono&#x27;,&#x27;Powerline Symbols&#x27;,monospace" font-size="1.67" class="b"><defs><symbol id="1"><text font-size="1.67" x="0" y="1.67" class="c">+------------+--------+--------------+------+------+------+--------+------+-----</text></symbol><symbol id="2"><text font-size="1.67" x="0" y="1.67" class="c">----------------------------------------------------------+</text></symbol><symbol id="a"><rect height="20" width="80" x="0" y="0" class="d"></rect></symbol></defs><rect height="43.42" width="80" class="a"></rect><svg x="0" y="0" width="80"><svg x="0"><use xlink:href="#a"></use><text font-size="1.67" x="0" y="1.67" class="c">|</text><text font-size="1.67" x="2.004" y="1.67" class="c">privileges</text><text font-size="1.67" x="13.026" y="1.67" class="c">|</text><text font-size="1.67" x="15.029999999999998" y="1.67" class="c">24</text><text font-size="1.67" x="22.043999999999997" y="1.67" class="c">|</text><text font-size="1.67" x="24.048" y="1.67" class="c">0</text><text font-size="1.67" x="37.074" y="1.67" class="c">|</text><text font-size="1.67" x="39.077999999999996" y="1.67" class="c">53.1</text><text font-size="1.67" x="44.087999999999994" y="1.67" class="c">|</text><text font-size="1.67" x="46.09199999999999" y="1.67" class="c">12.2</text><text font-size="1.67" x="51.102" y="1.67" class="c">|</text><text font-size="1.67" x="53.105999999999995" y="1.67" class="c">30.0</text><text font-size="1.67" x="58.116" y="1.67" class="c">|</text><text font-size="1.67" x="60.11999999999999" y="1.67" class="c">51.5</text><text font-size="1.67" x="67.134" y="1.67" class="c">|</text><text font-size="1.67" x="69.13799999999999" y="1.67" class="c">83.0</text><text font-size="1.67" x="74.148" y="1.67" class="c">|</text><text font-size="1.67" x="76.15199999999999" y="1.67" class="c">![](</text><text font-size="1.67" x="0" y="3.8409999999999997" class="c">tinytable_assets/idanexnk6s6puapxeeeuen.png){</text><text font-size="1.67" x="46.09199999999999" y="3.8409999999999997" class="c">height=16</text><text font-size="1.67" x="56.111999999999995" y="3.8409999999999997" class="c">}</text><text font-size="1.67" x="58.116" y="3.8409999999999997" class="c">|</text><use xlink:href="#1" y="4.342"></use><use xlink:href="#2" y="6.513"></use><text font-size="1.67" x="0" y="10.354" class="c">|</text><text font-size="1.67" x="2.004" y="10.354" class="c">learning</text><text font-size="1.67" x="13.026" y="10.354" class="c">|</text><text font-size="1.67" x="15.029999999999998" y="10.354" class="c">23</text><text font-size="1.67" x="22.043999999999997" y="10.354" class="c">|</text><text font-size="1.67" x="24.048" y="10.354" class="c">0</text><text font-size="1.67" x="37.074" y="10.354" class="c">|</text><text font-size="1.67" x="39.077999999999996" y="10.354" class="c">56.4</text><text font-size="1.67" x="44.087999999999994" y="10.354" class="c">|</text><text font-size="1.67" x="46.09199999999999" y="10.354" class="c">11.7</text><text font-size="1.67" x="51.102" y="10.354" class="c">|</text><text font-size="1.67" x="53.105999999999995" y="10.354" class="c">34.0</text><text font-size="1.67" x="58.116" y="10.354" class="c">|</text><text font-size="1.67" x="60.11999999999999" y="10.354" class="c">56.5</text><text font-size="1.67" x="67.134" y="10.354" class="c">|</text><text font-size="1.67" x="69.13799999999999" y="10.354" class="c">75.0</text><text font-size="1.67" x="74.148" y="10.354" class="c">|</text><text font-size="1.67" x="76.15199999999999" y="10.354" class="c">![](</text><text font-size="1.67" x="0" y="12.525" class="c">tinytable_assets/idguegazvsyh8sf7b9yr9w.png){</text><text font-size="1.67" x="46.09199999999999" y="12.525" class="c">height=16</text><text font-size="1.67" x="56.111999999999995" y="12.525" class="c">}</text><text font-size="1.67" x="58.116" y="12.525" class="c">|</text><use xlink:href="#1" y="13.026"></use><use xlink:href="#2" y="15.197"></use><text font-size="1.67" x="0" y="19.037999999999997" class="c">|</text><text font-size="1.67" x="2.004" y="19.037999999999997" class="c">raises</text><text font-size="1.67" x="13.026" y="19.037999999999997" class="c">|</text><text font-size="1.67" x="15.029999999999998" y="19.037999999999997" class="c">21</text><text font-size="1.67" x="22.043999999999997" y="19.037999999999997" class="c">|</text><text font-size="1.67" x="24.048" y="19.037999999999997" class="c">0</text><text font-size="1.67" x="37.074" y="19.037999999999997" class="c">|</text><text font-size="1.67" x="39.077999999999996" y="19.037999999999997" class="c">64.6</text><text font-size="1.67" x="44.087999999999994" y="19.037999999999997" class="c">|</text><text font-size="1.67" x="46.09199999999999" y="19.037999999999997" class="c">10.4</text><text font-size="1.67" x="51.102" y="19.037999999999997" class="c">|</text><text font-size="1.67" x="53.105999999999995" y="19.037999999999997" class="c">43.0</text><text font-size="1.67" x="58.116" y="19.037999999999997" class="c">|</text><text font-size="1.67" x="60.11999999999999" y="19.037999999999997" class="c">63.5</text><text font-size="1.67" x="67.134" y="19.037999999999997" class="c">|</text><text font-size="1.67" x="69.13799999999999" y="19.037999999999997" class="c">88.0</text><text font-size="1.67" x="74.148" y="19.037999999999997" class="c">|</text><text font-size="1.67" x="76.15199999999999" y="19.037999999999997" class="c">![](</text><text font-size="1.67" x="0" y="21.209000000000003" class="c">tinytable_assets/idnsizgit5hv9epp7yv3n6.png){</text><text font-size="1.67" x="46.09199999999999" y="21.209000000000003" class="c">height=16</text><text font-size="1.67" x="56.111999999999995" y="21.209000000000003" class="c">}</text><text font-size="1.67" x="58.116" y="21.209000000000003" class="c">|</text><use xlink:href="#1" y="21.71"></use><use xlink:href="#2" y="23.880999999999997"></use><text font-size="1.67" x="0" y="27.722" class="c">|</text><text font-size="1.67" x="2.004" y="27.722" class="c">critical</text><text font-size="1.67" x="13.026" y="27.722" class="c">|</text><text font-size="1.67" x="15.029999999999998" y="27.722" class="c">21</text><text font-size="1.67" x="22.043999999999997" y="27.722" class="c">|</text><text font-size="1.67" x="24.048" y="27.722" class="c">0</text><text font-size="1.67" x="37.074" y="27.722" class="c">|</text><text font-size="1.67" x="39.077999999999996" y="27.722" class="c">74.8</text><text font-size="1.67" x="44.087999999999994" y="27.722" class="c">|</text><text font-size="1.67" x="46.09199999999999" y="27.722" class="c">9.9</text><text font-size="1.67" x="51.102" y="27.722" class="c">|</text><text font-size="1.67" x="53.105999999999995" y="27.722" class="c">49.0</text><text font-size="1.67" x="58.116" y="27.722" class="c">|</text><text font-size="1.67" x="60.11999999999999" y="27.722" class="c">77.5</text><text font-size="1.67" x="67.134" y="27.722" class="c">|</text><text font-size="1.67" x="69.13799999999999" y="27.722" class="c">92.0</text><text font-size="1.67" x="74.148" y="27.722" class="c">|</text><text font-size="1.67" x="76.15199999999999" y="27.722" class="c">![](</text><text font-size="1.67" x="0" y="29.893" class="c">tinytable_assets/id8iuxsvhdx699b1wl288k.png){</text><text font-size="1.67" x="46.09199999999999" y="29.893" class="c">height=16</text><text font-size="1.67" x="56.111999999999995" y="29.893" class="c">}</text><text font-size="1.67" x="58.116" y="29.893" class="c">|</text><use xlink:href="#1" y="30.394"></use><use xlink:href="#2" y="32.565"></use><text font-size="1.67" x="0" y="36.406" class="c">|</text><text font-size="1.67" x="2.004" y="36.406" class="c">advance</text><text font-size="1.67" x="13.026" y="36.406" class="c">|</text><text font-size="1.67" x="15.029999999999998" y="36.406" class="c">20</text><text font-size="1.67" x="22.043999999999997" y="36.406" class="c">|</text><text font-size="1.67" x="24.048" y="36.406" class="c">0</text><text font-size="1.67" x="37.074" y="36.406" class="c">|</text><text font-size="1.67" x="39.077999999999996" y="36.406" class="c">42.9</text><text font-size="1.67" x="44.087999999999994" y="36.406" class="c">|</text><text font-size="1.67" x="46.09199999999999" y="36.406" class="c">10.3</text><text font-size="1.67" x="51.102" y="36.406" class="c">|</text><text font-size="1.67" x="53.105999999999995" y="36.406" class="c">25.0</text><text font-size="1.67" x="58.116" y="36.406" class="c">|</text><text font-size="1.67" x="60.11999999999999" y="36.406" class="c">41.0</text><text font-size="1.67" x="67.134" y="36.406" class="c">|</text><text font-size="1.67" x="69.13799999999999" y="36.406" class="c">72.0</text><text font-size="1.67" x="74.148" y="36.406" class="c">|</text><text font-size="1.67" x="76.15199999999999" y="36.406" class="c">![](</text><text font-size="1.67" x="0" y="38.577000000000005" class="c">tinytable_assets/iddn1kzj27el2j1jno7p1z.png){</text><text font-size="1.67" x="46.09199999999999" y="38.577000000000005" class="c">height=16</text><text font-size="1.67" x="56.111999999999995" y="38.577000000000005" class="c">}</text><text font-size="1.67" x="58.116" y="38.577000000000005" class="c">|</text><use xlink:href="#1" y="39.078"></use><use xlink:href="#2" y="41.248999999999995"></use></svg></svg></g></svg></svg>