<svg xmlns="http://www.w3.org/2000/svg" xmlns:xlink="http://www.w3.org/1999/xlink" width="840" height="581.04"><rect width="840" height="581.04" rx="5" ry="5" class="a"></rect><svg y="0%" x="0%"><circle cx="20" cy="20" r="6" class="b"></circle><circle cx="40" cy="20" r="6" class="c"></circle><circle cx="60" cy="20" r="6" class="d"></circle></svg><svg height="521.04" viewBox="0 0 80 52.104" width="800" x="15" xmlns="http://www.w3.org/2000/svg" xmlns:xlink="http://www.w3.org/1999/xlink" y="50"><style>.a{fill:rgb(40,45,53)}.b{fill:#ff5f58}.c{fill:#ffbd2e}.d{fill:#18c132}.e{font-family:'Fira Code',Monaco,Consolas,Menlo,'Bitstream Vera Sans Mono','Powerline Symbols',monospace}.f{fill:rgb(185,192,203);white-space:pre}.g{fill:transparent}.h{fill:rgb(111,118,131)}.j{animation-duration:8.32979489204576s;animation-iteration-count:infinite;animation-name:i;animation-timing-function:steps(1,end)}@keyframes i{0%{transform:translateX(-0px)}0%{transform:translateX(-80px)}0.3%{transform:translateX(-160px)}0.9%{transform:translateX(-240px)}1.3%{transform:translateX(-320px)}2%{transform:translateX(-400px)}2.8%{transform:translateX(-480px)}3.3%{transform:translateX(-560px)}3.7%{transform:translateX(-640px)}4%{transform:translateX(-720px)}4.8%{transform:translateX(-800px)}5.6%{transform:translateX(-880px)}6.3%{transform:translateX(-960px)}7%{transform:translateX(-1040px)}7.9%{transform:translateX(-1120px)}8.7%{transform:translateX(-1200px)}9.1%{transform:translateX(-1280px)}9.8%{transform:translateX(-1360px)}10.4%{transform:translateX(-1440px)}11.1%{transform:translateX(-1520px)}11.9%{transform:translateX(-1600px)}12.5%{transform:translateX(-1680px)}13%{transform:translateX(-1760px)}13.4%{transform:translateX(-1840px)}14.2%{transform:translateX(-1920px)}14.9%{transform:translateX(-2000px)}15.6%{transform:translateX(-2080px)}16.1%{transform:translateX(-2160px)}16.5%{transform:translateX(-2240px)}17.2%{transform:translateX(-2320px)}17.7%{transform:translateX(-2400px)}18.3%{transform:translateX(-2480px)}18.6%{transform:translateX(-2560px)}19.4%{transform:translateX(-2640px)}20%{transform:translateX(-2720px)}20.5%{transform:translateX(-2800px)}21.4%{transform:translateX(-2880px)}21.7%{transform:translateX(-2960px)}22.4%{transform:translateX(-3040px)}23.1%{transform:translateX(-3120px)}24%{transform:translateX(-3200px)}24.6%{transform:translateX(-3280px)}24.9%{transform:translateX(-3360px)}25.3%{transform:translateX(-3440px)}25.9%{transform:translateX(-3520px)}26.7%{transform:translateX(-3600px)}27.4%{transform:translateX(-3680px)}28%{transform:translateX(-3760px)}28%{transform:translateX(-3840px)}100%{transform:translateX(-3920px)}}</style><g font-family="&#x27;Fira Code&#x27;,Monaco,Consolas,Menlo,&#x27;Bitstream Vera Sans Mono&#x27;,&#x27;Powerline Symbols&#x27;,monospace" font-size="1.67" class="e"><defs><symbol id="1"><text font-size="1.67" x="0" y="1.67" class="f">&gt;</text><text font-size="1.67" x="2.004" y="1.67" class="f">j</text></symbol><symbol id="2"><text font-size="1.67" x="0" y="1.67" class="f">&gt;</text><text font-size="1.67" x="2.004" y="1.67" class="f">j</text><text font-size="1.67" x="4.008" y="1.67" class="f">&lt;-</text></symbol><symbol id="3"><text font-size="1.67" x="0" y="1.67" class="f">&gt;</text><text font-size="1.67" x="2.004" y="1.67" class="f">j</text><text font-size="1.67" x="4.008" y="1.67" class="f">&lt;-</text><text font-size="1.67" x="7.013999999999999" y="1.67" class="f">tibble::tibble(x</text></symbol><symbol id="4"><text font-size="1.67" x="0" y="1.67" class="f">&gt;</text><text font-size="1.67" x="2.004" y="1.67" class="f">j</text><text font-size="1.67" x="4.008" y="1.67" class="f">&lt;-</text><text font-size="1.67" x="7.013999999999999" y="1.67" class="f">tibble::tibble(x</text><text font-size="1.67" x="24.048" y="1.67" class="f">=</text></symbol><symbol id="5"><text font-size="1.67" x="0" y="1.67" class="f">&gt;</text><text font-size="1.67" x="2.004" y="1.67" class="f">j</text><text font-size="1.67" x="4.008" y="1.67" class="f">&lt;-</text><text font-size="1.67" x="7.013999999999999" y="1.67" class="f">tibble::tibble(x</text><text font-size="1.67" x="24.048" y="1.67" class="f">=</text><text font-size="1.67" x="26.052" y="1.67" class="f">1:3,</text></symbol><symbol id="6"><text font-size="1.67" x="0" y="1.67" class="f">&gt;</text><text font-size="1.67" x="2.004" y="1.67" class="f">j</text><text font-size="1.67" x="4.008" y="1.67" class="f">&lt;-</text><text font-size="1.67" x="7.013999999999999" y="1.67" class="f">tibble::tibble(x</text><text font-size="1.67" x="24.048" y="1.67" class="f">=</text><text font-size="1.67" x="26.052" y="1.67" class="f">1:3,</text><text font-size="1.67" x="31.061999999999998" y="1.67" class="f">y</text></symbol><symbol id="7"><text font-size="1.67" x="0" y="1.67" class="f">&gt;</text><text font-size="1.67" x="2.004" y="1.67" class="f">j</text><text font-size="1.67" x="4.008" y="1.67" class="f">&lt;-</text><text font-size="1.67" x="7.013999999999999" y="1.67" class="f">tibble::tibble(x</text><text font-size="1.67" x="24.048" y="1.67" class="f">=</text><text font-size="1.67" x="26.052" y="1.67" class="f">1:3,</text><text font-size="1.67" x="31.061999999999998" y="1.67" class="f">y</text><text font-size="1.67" x="33.065999999999995" y="1.67" class="f">=</text></symbol><symbol id="8"><text font-size="1.67" x="0" y="1.67" class="f">&gt;</text><text font-size="1.67" x="2.004" y="1.67" class="f">j</text><text font-size="1.67" x="4.008" y="1.67" class="f">&lt;-</text><text font-size="1.67" x="7.013999999999999" y="1.67" class="f">tibble::tibble(x</text><text font-size="1.67" x="24.048" y="1.67" class="f">=</text><text font-size="1.67" x="26.052" y="1.67" class="f">1:3,</text><text font-size="1.67" x="31.061999999999998" y="1.67" class="f">y</text><text font-size="1.67" x="33.065999999999995" y="1.67" class="f">=</text><text font-size="1.67" x="35.06999999999999" y="1.67" class="f">letters[1:3])</text></symbol><symbol id="a"><rect height="24" width="80" x="0" y="0" class="g"></rect></symbol><symbol id="b"><rect height="2.171" width="1.1022" class="h"></rect></symbol></defs><rect height="52.104" width="80" class="a"></rect><g class="j"><svg x="0" y="0" width="4000"><svg x="0"><use xlink:href="#a"></use><use xlink:href="#b" x="-0.0040000000000000036" y="0"></use></svg><svg x="80"><use xlink:href="#a"></use><use xlink:href="#b" x="1.996" y="0"></use><text font-size="1.67" x="0" y="1.67" class="f">&gt;</text></svg><svg x="160"><use xlink:href="#a"></use><use xlink:href="#b" x="2.996" y="0"></use><use xlink:href="#1" y="0"></use></svg><svg x="240"><use xlink:href="#a"></use><use xlink:href="#b" x="3.996" y="0"></use><use xlink:href="#1" y="0"></use></svg><svg x="320"><use xlink:href="#a"></use><use xlink:href="#b" x="4.996" y="0"></use><text font-size="1.67" x="0" y="1.67" class="f">&gt;</text><text font-size="1.67" x="2.004" y="1.67" class="f">j</text><text font-size="1.67" x="4.008" y="1.67" class="f">&lt;</text></svg><svg x="400"><use xlink:href="#a"></use><use xlink:href="#b" x="5.996" y="0"></use><use xlink:href="#2" y="0"></use></svg><svg x="480"><use xlink:href="#a"></use><use xlink:href="#b" x="6.996" y="0"></use><use xlink:href="#2" y="0"></use></svg><svg x="560"><use xlink:href="#a"></use><use xlink:href="#b" x="7.996" y="0"></use><text font-size="1.67" x="0" y="1.67" class="f">&gt;</text><text font-size="1.67" x="2.004" y="1.67" class="f">j</text><text font-size="1.67" x="4.008" y="1.67" class="f">&lt;-</text><text font-size="1.67" x="7.013999999999999" y="1.67" class="f">t</text></svg><svg x="640"><use xlink:href="#a"></use><use xlink:href="#b" x="8.996" y="0"></use><text font-size="1.67" x="0" y="1.67" class="f">&gt;</text><text font-size="1.67" x="2.004" y="1.67" class="f">j</text><text font-size="1.67" x="4.008" y="1.67" class="f">&lt;-</text><text font-size="1.67" x="7.013999999999999" y="1.67" class="f">ti</text></svg><svg x="720"><use xlink:href="#a"></use><use xlink:href="#b" x="9.996" y="0"></use><text font-size="1.67" x="0" y="1.67" class="f">&gt;</text><text font-size="1.67" x="2.004" y="1.67" class="f">j</text><text font-size="1.67" x="4.008" y="1.67" class="f">&lt;-</text><text font-size="1.67" x="7.013999999999999" y="1.67" class="f">tib</text></svg><svg x="800"><use xlink:href="#a"></use><use xlink:href="#b" x="10.996" y="0"></use><text font-size="1.67" x="0" y="1.67" class="f">&gt;</text><text font-size="1.67" x="2.004" y="1.67" class="f">j</text><text font-size="1.67" x="4.008" y="1.67" class="f">&lt;-</text><text font-size="1.67" x="7.013999999999999" y="1.67" class="f">tibb</text></svg><svg x="880"><use xlink:href="#a"></use><use xlink:href="#b" x="11.996" y="0"></use><text font-size="1.67" x="0" y="1.67" class="f">&gt;</text><text font-size="1.67" x="2.004" y="1.67" class="f">j</text><text font-size="1.67" x="4.008" y="1.67" class="f">&lt;-</text><text font-size="1.67" x="7.013999999999999" y="1.67" class="f">tibbl</text></svg><svg x="960"><use xlink:href="#a"></use><use xlink:href="#b" x="12.996" y="0"></use><text font-size="1.67" x="0" y="1.67" class="f">&gt;</text><text font-size="1.67" x="2.004" y="1.67" class="f">j</text><text font-size="1.67" x="4.008" y="1.67" class="f">&lt;-</text><text font-size="1.67" x="7.013999999999999" y="1.67" class="f">tibble</text></svg><svg x="1040"><use xlink:href="#a"></use><use xlink:href="#b" x="13.996" y="0"></use><text font-size="1.67" x="0" y="1.67" class="f">&gt;</text><text font-size="1.67" x="2.004" y="1.67" class="f">j</text><text font-size="1.67" x="4.008" y="1.67" class="f">&lt;-</text><text font-size="1.67" x="7.013999999999999" y="1.67" class="f">tibble:</text></svg><svg x="1120"><use xlink:href="#a"></use><use xlink:href="#b" x="14.996" y="0"></use><text font-size="1.67" x="0" y="1.67" class="f">&gt;</text><text font-size="1.67" x="2.004" y="1.67" class="f">j</text><text font-size="1.67" x="4.008" y="1.67" class="f">&lt;-</text><text font-size="1.67" x="7.013999999999999" y="1.67" class="f">tibble::</text></svg><svg x="1200"><use xlink:href="#a"></use><use xlink:href="#b" x="15.996" y="0"></use><text font-size="1.67" x="0" y="1.67" class="f">&gt;</text><text font-size="1.67" x="2.004" y="1.67" class="f">j</text><text font-size="1.67" x="4.008" y="1.67" class="f">&lt;-</text><text font-size="1.67" x="7.013999999999999" y="1.67" class="f">tibble::t</text></svg><svg x="1280"><use xlink:href="#a"></use><use xlink:href="#b" x="16.996" y="0"></use><text font-size="1.67" x="0" y="1.67" class="f">&gt;</text><text font-size="1.67" x="2.004" y="1.67" class="f">j</text><text font-size="1.67" x="4.008" y="1.67" class="f">&lt;-</text><text font-size="1.67" x="7.013999999999999" y="1.67" class="f">tibble::ti</text></svg><svg x="1360"><use xlink:href="#a"></use><use xlink:href="#b" x="17.996" y="0"></use><text font-size="1.67" x="0" y="1.67" class="f">&gt;</text><text font-size="1.67" x="2.004" y="1.67" class="f">j</text><text font-size="1.67" x="4.008" y="1.67" class="f">&lt;-</text><text font-size="1.67" x="7.013999999999999" y="1.67" class="f">tibble::tib</text></svg><svg x="1440"><use xlink:href="#a"></use><use xlink:href="#b" x="18.996" y="0"></use><text font-size="1.67" x="0" y="1.67" class="f">&gt;</text><text font-size="1.67" x="2.004" y="1.67" class="f">j</text><text font-size="1.67" x="4.008" y="1.67" class="f">&lt;-</text><text font-size="1.67" x="7.013999999999999" y="1.67" class="f">tibble::tibb</text></svg><svg x="1520"><use xlink:href="#a"></use><use xlink:href="#b" x="19.996" y="0"></use><text font-size="1.67" x="0" y="1.67" class="f">&gt;</text><text font-size="1.67" x="2.004" y="1.67" class="f">j</text><text font-size="1.67" x="4.008" y="1.67" class="f">&lt;-</text><text font-size="1.67" x="7.013999999999999" y="1.67" class="f">tibble::tibbl</text></svg><svg x="1600"><use xlink:href="#a"></use><use xlink:href="#b" x="20.996" y="0"></use><text font-size="1.67" x="0" y="1.67" class="f">&gt;</text><text font-size="1.67" x="2.004" y="1.67" class="f">j</text><text font-size="1.67" x="4.008" y="1.67" class="f">&lt;-</text><text font-size="1.67" x="7.013999999999999" y="1.67" class="f">tibble::tibble</text></svg><svg x="1680"><use xlink:href="#a"></use><use xlink:href="#b" x="21.996" y="0"></use><text font-size="1.67" x="0" y="1.67" class="f">&gt;</text><text font-size="1.67" x="2.004" y="1.67" class="f">j</text><text font-size="1.67" x="4.008" y="1.67" class="f">&lt;-</text><text font-size="1.67" x="7.013999999999999" y="1.67" class="f">tibble::tibble(</text></svg><svg x="1760"><use xlink:href="#a"></use><use xlink:href="#b" x="22.996" y="0"></use><use xlink:href="#3" y="0"></use></svg><svg x="1840"><use xlink:href="#a"></use><use xlink:href="#b" x="23.996" y="0"></use><use xlink:href="#3" y="0"></use></svg><svg x="1920"><use xlink:href="#a"></use><use xlink:href="#b" x="24.996" y="0"></use><use xlink:href="#4" y="0"></use></svg><svg x="2000"><use xlink:href="#a"></use><use xlink:href="#b" x="25.996" y="0"></use><use xlink:href="#4" y="0"></use></svg><svg x="2080"><use xlink:href="#a"></use><use xlink:href="#b" x="26.996" y="0"></use><text font-size="1.67" x="0" y="1.67" class="f">&gt;</text><text font-size="1.67" x="2.004" y="1.67" class="f">j</text><text font-size="1.67" x="4.008" y="1.67" class="f">&lt;-</text><text font-size="1.67" x="7.013999999999999" y="1.67" class="f">tibble::tibble(x</text><text font-size="1.67" x="24.048" y="1.67" class="f">=</text><text font-size="1.67" x="26.052" y="1.67" class="f">1</text></svg><svg x="2160"><use xlink:href="#a"></use><use xlink:href="#b" x="27.996" y="0"></use><text font-size="1.67" x="0" y="1.67" class="f">&gt;</text><text font-size="1.67" x="2.004" y="1.67" class="f">j</text><text font-size="1.67" x="4.008" y="1.67" class="f">&lt;-</text><text font-size="1.67" x="7.013999999999999" y="1.67" class="f">tibble::tibble(x</text><text font-size="1.67" x="24.048" y="1.67" class="f">=</text><text font-size="1.67" x="26.052" y="1.67" class="f">1:</text></svg><svg x="2240"><use xlink:href="#a"></use><use xlink:href="#b" x="28.996" y="0"></use><text font-size="1.67" x="0" y="1.67" class="f">&gt;</text><text font-size="1.67" x="2.004" y="1.67" class="f">j</text><text font-size="1.67" x="4.008" y="1.67" class="f">&lt;-</text><text font-size="1.67" x="7.013999999999999" y="1.67" class="f">tibble::tibble(x</text><text font-size="1.67" x="24.048" y="1.67" class="f">=</text><text font-size="1.67" x="26.052" y="1.67" class="f">1:3</text></svg><svg x="2320"><use xlink:href="#a"></use><use xlink:href="#b" x="29.996" y="0"></use><use xlink:href="#5" y="0"></use></svg><svg x="2400"><use xlink:href="#a"></use><use xlink:href="#b" x="30.996" y="0"></use><use xlink:href="#5" y="0"></use></svg><svg x="2480"><use xlink:href="#a"></use><use xlink:href="#b" x="31.996" y="0"></use><use xlink:href="#6" y="0"></use></svg><svg x="2560"><use xlink:href="#a"></use><use xlink:href="#b" x="32.996" y="0"></use><use xlink:href="#6" y="0"></use></svg><svg x="2640"><use xlink:href="#a"></use><use xlink:href="#b" x="33.996" y="0"></use><use xlink:href="#7" y="0"></use></svg><svg x="2720"><use xlink:href="#a"></use><use xlink:href="#b" x="34.996" y="0"></use><use xlink:href="#7" y="0"></use></svg><svg x="2800"><use xlink:href="#a"></use><use xlink:href="#b" x="35.996" y="0"></use><text font-size="1.67" x="0" y="1.67" class="f">&gt;</text><text font-size="1.67" x="2.004" y="1.67" class="f">j</text><text font-size="1.67" x="4.008" y="1.67" class="f">&lt;-</text><text font-size="1.67" x="7.013999999999999" y="1.67" class="f">tibble::tibble(x</text><text font-size="1.67" x="24.048" y="1.67" class="f">=</text><text font-size="1.67" x="26.052" y="1.67" class="f">1:3,</text><text font-size="1.67" x="31.061999999999998" y="1.67" class="f">y</text><text font-size="1.67" x="33.065999999999995" y="1.67" class="f">=</text><text font-size="1.67" x="35.06999999999999" y="1.67" class="f">l</text></svg><svg x="2880"><use xlink:href="#a"></use><use xlink:href="#b" x="36.996" y="0"></use><text font-size="1.67" x="0" y="1.67" class="f">&gt;</text><text font-size="1.67" x="2.004" y="1.67" class="f">j</text><text font-size="1.67" x="4.008" y="1.67" class="f">&lt;-</text><text font-size="1.67" x="7.013999999999999" y="1.67" class="f">tibble::tibble(x</text><text font-size="1.67" x="24.048" y="1.67" class="f">=</text><text font-size="1.67" x="26.052" y="1.67" class="f">1:3,</text><text font-size="1.67" x="31.061999999999998" y="1.67" class="f">y</text><text font-size="1.67" x="33.065999999999995" y="1.67" class="f">=</text><text font-size="1.67" x="35.06999999999999" y="1.67" class="f">le</text></svg><svg x="2960"><use xlink:href="#a"></use><use xlink:href="#b" x="37.996" y="0"></use><text font-size="1.67" x="0" y="1.67" class="f">&gt;</text><text font-size="1.67" x="2.004" y="1.67" class="f">j</text><text font-size="1.67" x="4.008" y="1.67" class="f">&lt;-</text><text font-size="1.67" x="7.013999999999999" y="1.67" class="f">tibble::tibble(x</text><text font-size="1.67" x="24.048" y="1.67" class="f">=</text><text font-size="1.67" x="26.052" y="1.67" class="f">1:3,</text><text font-size="1.67" x="31.061999999999998" y="1.67" class="f">y</text><text font-size="1.67" x="33.065999999999995" y="1.67" class="f">=</text><text font-size="1.67" x="35.06999999999999" y="1.67" class="f">let</text></svg><svg x="3040"><use xlink:href="#a"></use><use xlink:href="#b" x="38.996" y="0"></use><text font-size="1.67" x="0" y="1.67" class="f">&gt;</text><text font-size="1.67" x="2.004" y="1.67" class="f">j</text><text font-size="1.67" x="4.008" y="1.67" class="f">&lt;-</text><text font-size="1.67" x="7.013999999999999" y="1.67" class="f">tibble::tibble(x</text><text font-size="1.67" x="24.048" y="1.67" class="f">=</text><text font-size="1.67" x="26.052" y="1.67" class="f">1:3,</text><text font-size="1.67" x="31.061999999999998" y="1.67" class="f">y</text><text font-size="1.67" x="33.065999999999995" y="1.67" class="f">=</text><text font-size="1.67" x="35.06999999999999" y="1.67" class="f">lett</text></svg><svg x="3120"><use xlink:href="#a"></use><use xlink:href="#b" x="39.996" y="0"></use><text font-size="1.67" x="0" y="1.67" class="f">&gt;</text><text font-size="1.67" x="2.004" y="1.67" class="f">j</text><text font-size="1.67" x="4.008" y="1.67" class="f">&lt;-</text><text font-size="1.67" x="7.013999999999999" y="1.67" class="f">tibble::tibble(x</text><text font-size="1.67" x="24.048" y="1.67" class="f">=</text><text font-size="1.67" x="26.052" y="1.67" class="f">1:3,</text><text font-size="1.67" x="31.061999999999998" y="1.67" class="f">y</text><text font-size="1.67" x="33.065999999999995" y="1.67" class="f">=</text><text font-size="1.67" x="35.06999999999999" y="1.67" class="f">lette</text></svg><svg x="3200"><use xlink:href="#a"></use><use xlink:href="#b" x="40.996" y="0"></use><text font-size="1.67" x="0" y="1.67" class="f">&gt;</text><text font-size="1.67" x="2.004" y="1.67" class="f">j</text><text font-size="1.67" x="4.008" y="1.67" class="f">&lt;-</text><text font-size="1.67" x="7.013999999999999" y="1.67" class="f">tibble::tibble(x</text><text font-size="1.67" x="24.048" y="1.67" class="f">=</text><text font-size="1.67" x="26.052" y="1.67" class="f">1:3,</text><text font-size="1.67" x="31.061999999999998" y="1.67" class="f">y</text><text font-size="1.67" x="33.065999999999995" y="1.67" class="f">=</text><text font-size="1.67" x="35.06999999999999" y="1.67" class="f">letter</text></svg><svg x="3280"><use xlink:href="#a"></use><use xlink:href="#b" x="41.996" y="0"></use><text font-size="1.67" x="0" y="1.67" class="f">&gt;</text><text font-size="1.67" x="2.004" y="1.67" class="f">j</text><text font-size="1.67" x="4.008" y="1.67" class="f">&lt;-</text><text font-size="1.67" x="7.013999999999999" y="1.67" class="f">tibble::tibble(x</text><text font-size="1.67" x="24.048" y="1.67" class="f">=</text><text font-size="1.67" x="26.052" y="1.67" class="f">1:3,</text><text font-size="1.67" x="31.061999999999998" y="1.67" class="f">y</text><text font-size="1.67" x="33.065999999999995" y="1.67" class="f">=</text><text font-size="1.67" x="35.06999999999999" y="1.67" class="f">letters</text></svg><svg x="3360"><use xlink:href="#a"></use><use xlink:href="#b" x="42.996" y="0"></use><text font-size="1.67" x="0" y="1.67" class="f">&gt;</text><text font-size="1.67" x="2.004" y="1.67" class="f">j</text><text font-size="1.67" x="4.008" y="1.67" class="f">&lt;-</text><text font-size="1.67" x="7.013999999999999" y="1.67" class="f">tibble::tibble(x</text><text font-size="1.67" x="24.048" y="1.67" class="f">=</text><text font-size="1.67" x="26.052" y="1.67" class="f">1:3,</text><text font-size="1.67" x="31.061999999999998" y="1.67" class="f">y</text><text font-size="1.67" x="33.065999999999995" y="1.67" class="f">=</text><text font-size="1.67" x="35.06999999999999" y="1.67" class="f">letters[</text></svg><svg x="3440"><use xlink:href="#a"></use><use xlink:href="#b" x="43.996" y="0"></use><text font-size="1.67" x="0" y="1.67" class="f">&gt;</text><text font-size="1.67" x="2.004" y="1.67" class="f">j</text><text font-size="1.67" x="4.008" y="1.67" class="f">&lt;-</text><text font-size="1.67" x="7.013999999999999" y="1.67" class="f">tibble::tibble(x</text><text font-size="1.67" x="24.048" y="1.67" class="f">=</text><text font-size="1.67" x="26.052" y="1.67" class="f">1:3,</text><text font-size="1.67" x="31.061999999999998" y="1.67" class="f">y</text><text font-size="1.67" x="33.065999999999995" y="1.67" class="f">=</text><text font-size="1.67" x="35.06999999999999" y="1.67" class="f">letters[1</text></svg><svg x="3520"><use xlink:href="#a"></use><use xlink:href="#b" x="44.996" y="0"></use><text font-size="1.67" x="0" y="1.67" class="f">&gt;</text><text font-size="1.67" x="2.004" y="1.67" class="f">j</text><text font-size="1.67" x="4.008" y="1.67" class="f">&lt;-</text><text font-size="1.67" x="7.013999999999999" y="1.67" class="f">tibble::tibble(x</text><text font-size="1.67" x="24.048" y="1.67" class="f">=</text><text font-size="1.67" x="26.052" y="1.67" class="f">1:3,</text><text font-size="1.67" x="31.061999999999998" y="1.67" class="f">y</text><text font-size="1.67" x="33.065999999999995" y="1.67" class="f">=</text><text font-size="1.67" x="35.06999999999999" y="1.67" class="f">letters[1:</text></svg><svg x="3600"><use xlink:href="#a"></use><use xlink:href="#b" x="45.996" y="0"></use><text font-size="1.67" x="0" y="1.67" class="f">&gt;</text><text font-size="1.67" x="2.004" y="1.67" class="f">j</text><text font-size="1.67" x="4.008" y="1.67" class="f">&lt;-</text><text font-size="1.67" x="7.013999999999999" y="1.67" class="f">tibble::tibble(x</text><text font-size="1.67" x="24.048" y="1.67" class="f">=</text><text font-size="1.67" x="26.052" y="1.67" class="f">1:3,</text><text font-size="1.67" x="31.061999999999998" y="1.67" class="f">y</text><text font-size="1.67" x="33.065999999999995" y="1.67" class="f">=</text><text font-size="1.67" x="35.06999999999999" y="1.67" class="f">letters[1:3</text></svg><svg x="3680"><use xlink:href="#a"></use><use xlink:href="#b" x="46.996" y="0"></use><text font-size="1.67" x="0" y="1.67" class="f">&gt;</text><text font-size="1.67" x="2.004" y="1.67" class="f">j</text><text font-size="1.67" x="4.008" y="1.67" class="f">&lt;-</text><text font-size="1.67" x="7.013999999999999" y="1.67" class="f">tibble::tibble(x</text><text font-size="1.67" x="24.048" y="1.67" class="f">=</text><text font-size="1.67" x="26.052" y="1.67" class="f">1:3,</text><text font-size="1.67" x="31.061999999999998" y="1.67" class="f">y</text><text font-size="1.67" x="33.065999999999995" y="1.67" class="f">=</text><text font-size="1.67" x="35.06999999999999" y="1.67" class="f">letters[1:3]</text></svg><svg x="3760"><use xlink:href="#a"></use><use xlink:href="#b" x="47.996" y="0"></use><use xlink:href="#8" y="0"></use></svg><svg x="3840"><use xlink:href="#a"></use><use xlink:href="#b" x="-0.0040000000000000036" y="2.146"></use><use xlink:href="#8" y="0"></use></svg><svg x="3920"><use xlink:href="#a"></use><use xlink:href="#b" x="-0.0040000000000000036" y="2.146"></use><use xlink:href="#8" y="0"></use></svg></svg></g></g></svg></svg>