<svg xmlns="http://www.w3.org/2000/svg" xmlns:xlink="http://www.w3.org/1999/xlink" width="840" height="278.80999999999995"><rect width="840" height="278.80999999999995" rx="0" ry="0" class="a"></rect><svg height="238.80999999999997" viewBox="0 0 80 23.880999999999997" width="800" x="20" xmlns="http://www.w3.org/2000/svg" xmlns:xlink="http://www.w3.org/1999/xlink" y="20"><style>.a{fill:rgb(40,45,53)}.b{font-family:'Fira Code',Monaco,Consolas,Menlo,'Bitstream Vera Sans Mono','Powerline Symbols',monospace}.c{fill:rgb(185,192,203);white-space:pre}.d{fill:transparent}</style><g font-family="&#x27;Fira Code&#x27;,Monaco,Consolas,Menlo,&#x27;Bitstream Vera Sans Mono&#x27;,&#x27;Powerline Symbols&#x27;,monospace" font-size="1.67" class="b"><defs><symbol id="1"><text font-size="1.67" x="0" y="1.67" class="c">&gt;</text></symbol><symbol id="2"><text font-size="1.67" x="0" y="1.67" class="c">+</text><text font-size="1.67" x="2.004" y="1.67" class="c">)</text></symbol><symbol id="a"><rect height="11" width="80" x="0" y="0" class="d"></rect></symbol></defs><rect height="23.880999999999997" width="80" class="a"></rect><svg x="0" y="0" width="80"><svg x="0"><use xlink:href="#a"></use><text font-size="1.67" x="0" y="1.67" class="c">&gt;</text><text font-size="1.67" x="2.004" y="1.67" class="c">palette(&quot;Classic</text><text font-size="1.67" x="19.037999999999997" y="1.67" class="c">Tableau&quot;)</text><use xlink:href="#1" y="2.171"></use><text font-size="1.67" x="0" y="6.012" class="c">&gt;</text><text font-size="1.67" x="2.004" y="6.012" class="c">par(</text><text font-size="1.67" x="0" y="8.183" class="c">+</text><text font-size="1.67" x="4.008" y="8.183" class="c">family</text><text font-size="1.67" x="11.021999999999998" y="8.183" class="c">=</text><text font-size="1.67" x="13.026" y="8.183" class="c">&quot;HersheySans&quot;,</text><text font-size="1.67" x="0" y="10.354" class="c">+</text><text font-size="1.67" x="4.008" y="10.354" class="c">las</text><text font-size="1.67" x="8.016" y="10.354" class="c">=</text><text font-size="1.67" x="10.02" y="10.354" class="c">1,</text><text font-size="1.67" x="13.026" y="10.354" class="c">pch</text><text font-size="1.67" x="17.034" y="10.354" class="c">=</text><text font-size="1.67" x="19.037999999999997" y="10.354" class="c">19,</text><text font-size="1.67" x="23.045999999999996" y="10.354" class="c">cex</text><text font-size="1.67" x="27.054" y="10.354" class="c">=</text><text font-size="1.67" x="29.058" y="10.354" class="c">1.5</text><use xlink:href="#2" y="10.855"></use><use xlink:href="#1" y="13.026"></use><text font-size="1.67" x="0" y="16.866999999999997" class="c">&gt;</text><text font-size="1.67" x="2.004" y="16.866999999999997" class="c">pairs(</text><text font-size="1.67" x="0" y="19.037999999999997" class="c">+</text><text font-size="1.67" x="4.008" y="19.037999999999997" class="c">iris[,1:4],</text><text font-size="1.67" x="0" y="21.209000000000003" class="c">+</text><text font-size="1.67" x="4.008" y="21.209000000000003" class="c">col=iris$Species</text><use xlink:href="#2" y="21.71"></use></svg></svg></g></svg></svg>