<svg xmlns="http://www.w3.org/2000/svg" xmlns:xlink="http://www.w3.org/1999/xlink" width="840" height="886.6899999999999"><rect width="840" height="886.6899999999999" rx="0" ry="0" class="a"></rect><svg height="846.6899999999999" viewBox="0 0 80 84.669" width="800" x="20" xmlns="http://www.w3.org/2000/svg" xmlns:xlink="http://www.w3.org/1999/xlink" y="20"><style>.a{fill:rgb(40,45,53)}.b{font-family:'Fira Code',Monaco,Consolas,Menlo,'Bitstream Vera Sans Mono','Powerline Symbols',monospace}.c{fill:rgb(185,192,203);white-space:pre}.d{fill:transparent}</style><g font-family="&#x27;Fira Code&#x27;,Monaco,Consolas,Menlo,&#x27;Bitstream Vera Sans Mono&#x27;,&#x27;Powerline Symbols&#x27;,monospace" font-size="1.67" class="b"><defs><symbol id="1"><text font-size="1.67" x="0" y="1.67" class="c">&gt;</text></symbol><symbol id="a"><rect height="39" width="80" x="0" y="0" class="d"></rect></symbol></defs><rect height="84.669" width="80" class="a"></rect><svg x="0" y="0" width="80"><svg x="0"><use xlink:href="#a"></use><text font-size="1.67" x="0" y="1.67" class="c">&gt;</text><text font-size="1.67" x="2.004" y="1.67" class="c">library(threejs)</text><text font-size="1.67" x="0" y="3.8409999999999997" class="c">Loading</text><text font-size="1.67" x="8.016" y="3.8409999999999997" class="c">required</text><text font-size="1.67" x="17.034" y="3.8409999999999997" class="c">package:</text><text font-size="1.67" x="26.052" y="3.8409999999999997" class="c">igraph</text><text font-size="1.67" x="0" y="8.183" class="c">Attaching</text><text font-size="1.67" x="10.02" y="8.183" class="c">package:</text><text font-size="1.67" x="19.037999999999997" y="8.183" class="c">‘igraph’</text><text font-size="1.67" x="0" y="12.525" class="c">The</text><text font-size="1.67" x="4.008" y="12.525" class="c">following</text><text font-size="1.67" x="14.027999999999999" y="12.525" class="c">objects</text><text font-size="1.67" x="22.043999999999997" y="12.525" class="c">are</text><text font-size="1.67" x="26.052" y="12.525" class="c">masked</text><text font-size="1.67" x="33.065999999999995" y="12.525" class="c">from</text><text font-size="1.67" x="38.07599999999999" y="12.525" class="c">‘package:stats’:</text><text font-size="1.67" x="4.008" y="16.866999999999997" class="c">decompose,</text><text font-size="1.67" x="15.029999999999998" y="16.866999999999997" class="c">spectrum</text><text font-size="1.67" x="0" y="21.209000000000003" class="c">The</text><text font-size="1.67" x="4.008" y="21.209000000000003" class="c">following</text><text font-size="1.67" x="14.027999999999999" y="21.209000000000003" class="c">object</text><text font-size="1.67" x="21.041999999999998" y="21.209000000000003" class="c">is</text><text font-size="1.67" x="24.048" y="21.209000000000003" class="c">masked</text><text font-size="1.67" x="31.061999999999998" y="21.209000000000003" class="c">from</text><text font-size="1.67" x="36.071999999999996" y="21.209000000000003" class="c">‘package:base’:</text><text font-size="1.67" x="4.008" y="25.550999999999995" class="c">union</text><text font-size="1.67" x="0" y="29.893" class="c">&gt;</text><text font-size="1.67" x="2.004" y="29.893" class="c">library(nycflights13)</text><use xlink:href="#1" y="30.394"></use><text font-size="1.67" x="0" y="34.235" class="c">&gt;</text><text font-size="1.67" x="2.004" y="34.235" class="c">#</text><text font-size="1.67" x="4.008" y="34.235" class="c">Approximate</text><text font-size="1.67" x="16.032" y="34.235" class="c">locations</text><text font-size="1.67" x="26.052" y="34.235" class="c">as</text><text font-size="1.67" x="29.058" y="34.235" class="c">factors</text><text font-size="1.67" x="0" y="36.406" class="c">&gt;</text><text font-size="1.67" x="2.004" y="36.406" class="c">flights</text><text font-size="1.67" x="10.02" y="36.406" class="c">&lt;-</text><text font-size="1.67" x="13.026" y="36.406" class="c">flights()</text><text font-size="1.67" x="0" y="38.577000000000005" class="c">&gt;</text><text font-size="1.67" x="2.004" y="38.577000000000005" class="c">dest</text><text font-size="1.67" x="7.013999999999999" y="38.577000000000005" class="c">=</text><text font-size="1.67" x="9.017999999999999" y="38.577000000000005" class="c">factor(sprintf(&quot;%.2f:%.2f&quot;,</text><text font-size="1.67" x="37.074" y="38.577000000000005" class="c">flights[,3],</text><text font-size="1.67" x="50.1" y="38.577000000000005" class="c">flights[,4]))</text><use xlink:href="#1" y="39.078"></use><text font-size="1.67" x="0" y="42.919" class="c">&gt;</text><text font-size="1.67" x="2.004" y="42.919" class="c">#</text><text font-size="1.67" x="4.008" y="42.919" class="c">A</text><text font-size="1.67" x="6.012" y="42.919" class="c">table</text><text font-size="1.67" x="12.024" y="42.919" class="c">of</text><text font-size="1.67" x="15.029999999999998" y="42.919" class="c">destination</text><text font-size="1.67" x="27.054" y="42.919" class="c">frequencies</text><text font-size="1.67" x="0" y="45.09" class="c">&gt;</text><text font-size="1.67" x="2.004" y="45.09" class="c">freq</text><text font-size="1.67" x="7.013999999999999" y="45.09" class="c">=</text><text font-size="1.67" x="9.017999999999999" y="45.09" class="c">sort(table(dest),</text><text font-size="1.67" x="27.054" y="45.09" class="c">decreasing=TRUE)</text><use xlink:href="#1" y="45.591"></use><text font-size="1.67" x="0" y="49.431999999999995" class="c">&gt;</text><text font-size="1.67" x="2.004" y="49.431999999999995" class="c">#</text><text font-size="1.67" x="4.008" y="49.431999999999995" class="c">The</text><text font-size="1.67" x="8.016" y="49.431999999999995" class="c">most</text><text font-size="1.67" x="13.026" y="49.431999999999995" class="c">frequent</text><text font-size="1.67" x="22.043999999999997" y="49.431999999999995" class="c">destinations</text><text font-size="1.67" x="35.06999999999999" y="49.431999999999995" class="c">in</text><text font-size="1.67" x="38.07599999999999" y="49.431999999999995" class="c">these</text><text font-size="1.67" x="44.087999999999994" y="49.431999999999995" class="c">data</text><text font-size="1.67" x="0" y="51.603" class="c">&gt;</text><text font-size="1.67" x="2.004" y="51.603" class="c">frequent_destinations</text><text font-size="1.67" x="24.048" y="51.603" class="c">=</text><text font-size="1.67" x="26.052" y="51.603" class="c">names(freq)[1:10]</text><use xlink:href="#1" y="52.104"></use><text font-size="1.67" x="0" y="55.945" class="c">&gt;</text><text font-size="1.67" x="2.004" y="55.945" class="c">#</text><text font-size="1.67" x="4.008" y="55.945" class="c">Subset</text><text font-size="1.67" x="11.021999999999998" y="55.945" class="c">the</text><text font-size="1.67" x="15.029999999999998" y="55.945" class="c">flight</text><text font-size="1.67" x="22.043999999999997" y="55.945" class="c">data</text><text font-size="1.67" x="27.054" y="55.945" class="c">by</text><text font-size="1.67" x="30.059999999999995" y="55.945" class="c">destination</text><text font-size="1.67" x="42.083999999999996" y="55.945" class="c">frequency</text><text font-size="1.67" x="0" y="58.11600000000001" class="c">&gt;</text><text font-size="1.67" x="2.004" y="58.11600000000001" class="c">idx</text><text font-size="1.67" x="6.012" y="58.11600000000001" class="c">=</text><text font-size="1.67" x="8.016" y="58.11600000000001" class="c">dest</text><text font-size="1.67" x="13.026" y="58.11600000000001" class="c">%in%</text><text font-size="1.67" x="18.035999999999998" y="58.11600000000001" class="c">frequent_destinations</text><text font-size="1.67" x="0" y="60.287" class="c">&gt;</text><text font-size="1.67" x="2.004" y="60.287" class="c">frequent_flights</text><text font-size="1.67" x="19.037999999999997" y="60.287" class="c">=</text><text font-size="1.67" x="21.041999999999998" y="60.287" class="c">flights[idx,</text><text font-size="1.67" x="34.068" y="60.287" class="c">]</text><use xlink:href="#1" y="60.788"></use><text font-size="1.67" x="0" y="64.629" class="c">&gt;</text><text font-size="1.67" x="2.004" y="64.629" class="c">#</text><text font-size="1.67" x="4.008" y="64.629" class="c">Lat/long</text><text font-size="1.67" x="13.026" y="64.629" class="c">and</text><text font-size="1.67" x="17.034" y="64.629" class="c">counts</text><text font-size="1.67" x="24.048" y="64.629" class="c">of</text><text font-size="1.67" x="27.054" y="64.629" class="c">frequent</text><text font-size="1.67" x="36.071999999999996" y="64.629" class="c">flights</text><text font-size="1.67" x="0" y="66.8" class="c">&gt;</text><text font-size="1.67" x="2.004" y="66.8" class="c">ll</text><text font-size="1.67" x="5.01" y="66.8" class="c">=</text><text font-size="1.67" x="7.013999999999999" y="66.8" class="c">unique(frequent_flights[,</text><text font-size="1.67" x="33.065999999999995" y="66.8" class="c">3:4])</text><use xlink:href="#1" y="67.301"></use><text font-size="1.67" x="0" y="71.142" class="c">&gt;</text><text font-size="1.67" x="2.004" y="71.142" class="c">#</text><text font-size="1.67" x="4.008" y="71.142" class="c">Plot</text><text font-size="1.67" x="9.017999999999999" y="71.142" class="c">frequent</text><text font-size="1.67" x="18.035999999999998" y="71.142" class="c">destinations</text><text font-size="1.67" x="31.061999999999998" y="71.142" class="c">as</text><text font-size="1.67" x="34.068" y="71.142" class="c">bars,</text><text font-size="1.67" x="40.08" y="71.142" class="c">and</text><text font-size="1.67" x="44.087999999999994" y="71.142" class="c">the</text><text font-size="1.67" x="48.096" y="71.142" class="c">flights</text><text font-size="1.67" x="56.111999999999995" y="71.142" class="c">to</text><text font-size="1.67" x="59.117999999999995" y="71.142" class="c">and</text><text font-size="1.67" x="63.12599999999999" y="71.142" class="c">from</text><text font-size="1.67" x="0" y="73.313" class="c">&gt;</text><text font-size="1.67" x="2.004" y="73.313" class="c">#</text><text font-size="1.67" x="4.008" y="73.313" class="c">them</text><text font-size="1.67" x="9.017999999999999" y="73.313" class="c">as</text><text font-size="1.67" x="12.024" y="73.313" class="c">arcs.</text><text font-size="1.67" x="18.035999999999998" y="73.313" class="c">Adjust</text><text font-size="1.67" x="25.05" y="73.313" class="c">arc</text><text font-size="1.67" x="29.058" y="73.313" class="c">width</text><text font-size="1.67" x="35.06999999999999" y="73.313" class="c">and</text><text font-size="1.67" x="39.077999999999996" y="73.313" class="c">color</text><text font-size="1.67" x="45.089999999999996" y="73.313" class="c">by</text><text font-size="1.67" x="48.096" y="73.313" class="c">frequency.</text><text font-size="1.67" x="0" y="75.48400000000001" class="c">&gt;</text><text font-size="1.67" x="2.004" y="75.48400000000001" class="c">globejs(lat=ll[,</text><text font-size="1.67" x="19.037999999999997" y="75.48400000000001" class="c">1],</text><text font-size="1.67" x="23.045999999999996" y="75.48400000000001" class="c">long=ll[,</text><text font-size="1.67" x="33.065999999999995" y="75.48400000000001" class="c">2],</text><text font-size="1.67" x="37.074" y="75.48400000000001" class="c">arcs=frequent_flights,</text><text font-size="1.67" x="0" y="77.655" class="c">+</text><text font-size="1.67" x="10.02" y="77.655" class="c">#</text><text font-size="1.67" x="12.024" y="77.655" class="c">bodycolor=&quot;#aaaaff&quot;,</text><text font-size="1.67" x="33.065999999999995" y="77.655" class="c">arcsHeight=0.3,</text><text font-size="1.67" x="49.098" y="77.655" class="c">arcsLwd=2,</text><text font-size="1.67" x="0" y="79.82600000000001" class="c">+</text><text font-size="1.67" x="10.02" y="79.82600000000001" class="c">bodycolor=&quot;#fff&quot;,</text><text font-size="1.67" x="28.055999999999997" y="79.82600000000001" class="c">arcsHeight=0.3,</text><text font-size="1.67" x="44.087999999999994" y="79.82600000000001" class="c">arcsLwd=2,</text><text font-size="1.67" x="0" y="81.997" class="c">+</text><text font-size="1.67" x="10.02" y="81.997" class="c">arcsColor=&quot;#ffff00&quot;,</text><text font-size="1.67" x="31.061999999999998" y="81.997" class="c">arcsOpacity=0.15,</text><text font-size="1.67" x="0" y="84.16799999999999" class="c">+</text><text font-size="1.67" x="10.02" y="84.16799999999999" class="c">atmosphere=TRUE,</text><text font-size="1.67" x="27.054" y="84.16799999999999" class="c">color=&quot;#fff&quot;,</text><text font-size="1.67" x="41.082" y="84.16799999999999" class="c">pointsize=0.5)</text></svg></svg></g></svg></svg>