<svg xmlns="http://www.w3.org/2000/svg" xmlns:xlink="http://www.w3.org/1999/xlink" width="840" height="843.27"><rect width="840" height="843.27" rx="0" ry="0" class="a"></rect><svg height="803.27" viewBox="0 0 80 80.327" width="800" x="20" xmlns="http://www.w3.org/2000/svg" xmlns:xlink="http://www.w3.org/1999/xlink" y="20"><style>.a{fill:rgb(40,45,53)}.b{font-family:'Fira Code',Monaco,Consolas,Menlo,'Bitstream Vera Sans Mono','Powerline Symbols',monospace}.c{fill:rgb(185,192,203);white-space:pre}.d{fill:transparent}</style><g font-family="&#x27;Fira Code&#x27;,Monaco,Consolas,Menlo,&#x27;Bitstream Vera Sans Mono&#x27;,&#x27;Powerline Symbols&#x27;,monospace" font-size="1.67" class="b"><defs><symbol id="1"><text font-size="1.67" x="0" y="1.67" class="c">+--------------------------+----------------+----------------+</text></symbol><symbol id="2"><text font-size="1.67" x="0" y="1.67" class="c">+==========================+================+================+</text></symbol><symbol id="a"><rect height="37" width="80" x="0" y="0" class="d"></rect></symbol></defs><rect height="80.327" width="80" class="a"></rect><svg x="0" y="0" width="80"><svg x="0"><use xlink:href="#a"></use><text font-size="1.67" x="0" y="1.67" class="c">&gt;</text><text font-size="1.67" x="2.004" y="1.67" class="c">library(modelsummary)</text><text font-size="1.67" x="24.048" y="1.67" class="c">#</text><text font-size="1.67" x="26.052" y="1.67" class="c">Make</text><text font-size="1.67" x="31.061999999999998" y="1.67" class="c">sure</text><text font-size="1.67" x="36.071999999999996" y="1.67" class="c">you</text><text font-size="1.67" x="40.08" y="1.67" class="c">have</text><text font-size="1.67" x="45.089999999999996" y="1.67" class="c">&gt;=v2.0.0</text><text font-size="1.67" x="0" y="3.8409999999999997" class="c">&gt;</text><text font-size="1.67" x="0" y="6.012" class="c">&gt;</text><text font-size="1.67" x="2.004" y="6.012" class="c">modelsummary(</text><text font-size="1.67" x="0" y="8.183" class="c">+</text><text font-size="1.67" x="4.008" y="8.183" class="c">setNames(mods,</text><text font-size="1.67" x="19.037999999999997" y="8.183" class="c">c(&quot;(1)&quot;,</text><text font-size="1.67" x="28.055999999999997" y="8.183" class="c">&quot;(2)&quot;)),</text><text font-size="1.67" x="0" y="10.354" class="c">+</text><text font-size="1.67" x="4.008" y="10.354" class="c">coef_map</text><text font-size="1.67" x="13.026" y="10.354" class="c">=</text><text font-size="1.67" x="15.029999999999998" y="10.354" class="c">dict,</text><text font-size="1.67" x="21.041999999999998" y="10.354" class="c">stars</text><text font-size="1.67" x="27.054" y="10.354" class="c">=</text><text font-size="1.67" x="29.058" y="10.354" class="c">TRUE,</text><text font-size="1.67" x="0" y="12.525" class="c">+</text><text font-size="1.67" x="4.008" y="12.525" class="c">gof_map</text><text font-size="1.67" x="12.024" y="12.525" class="c">=</text><text font-size="1.67" x="14.027999999999999" y="12.525" class="c">NA</text><text font-size="1.67" x="0" y="14.696" class="c">+</text><text font-size="1.67" x="4.008" y="14.696" class="c">)</text><text font-size="1.67" x="6.012" y="14.696" class="c">|&gt;</text><text font-size="1.67" x="0" y="16.866999999999997" class="c">+</text><text font-size="1.67" x="4.008" y="16.866999999999997" class="c">#</text><text font-size="1.67" x="6.012" y="16.866999999999997" class="c">some</text><text font-size="1.67" x="11.021999999999998" y="16.866999999999997" class="c">optional</text><text font-size="1.67" x="20.04" y="16.866999999999997" class="c">stylistic</text><text font-size="1.67" x="30.059999999999995" y="16.866999999999997" class="c">tweaks</text><text font-size="1.67" x="0" y="19.037999999999997" class="c">+</text><text font-size="1.67" x="4.008" y="19.037999999999997" class="c">tinytable::group_tt(j</text><text font-size="1.67" x="26.052" y="19.037999999999997" class="c">=</text><text font-size="1.67" x="28.055999999999997" y="19.037999999999997" class="c">list(&quot;Dep.</text><text font-size="1.67" x="39.077999999999996" y="19.037999999999997" class="c">variable:</text><text font-size="1.67" x="49.098" y="19.037999999999997" class="c">Overall</text><text font-size="1.67" x="57.114" y="19.037999999999997" class="c">Rating&quot;</text><text font-size="1.67" x="65.13" y="19.037999999999997" class="c">=</text><text font-size="1.67" x="67.134" y="19.037999999999997" class="c">2:3))</text><text font-size="1.67" x="73.146" y="19.037999999999997" class="c">|&gt;</text><text font-size="1.67" x="0" y="21.209000000000003" class="c">+</text><text font-size="1.67" x="4.008" y="21.209000000000003" class="c">tinytable::style_tt(i</text><text font-size="1.67" x="26.052" y="21.209000000000003" class="c">=</text><text font-size="1.67" x="28.055999999999997" y="21.209000000000003" class="c">1:2,</text><text font-size="1.67" x="33.065999999999995" y="21.209000000000003" class="c">j</text><text font-size="1.67" x="35.06999999999999" y="21.209000000000003" class="c">=</text><text font-size="1.67" x="37.074" y="21.209000000000003" class="c">2:3,</text><text font-size="1.67" x="42.083999999999996" y="21.209000000000003" class="c">background</text><text font-size="1.67" x="53.105999999999995" y="21.209000000000003" class="c">=</text><text font-size="1.67" x="55.10999999999999" y="21.209000000000003" class="c">&quot;pink&quot;)</text><use xlink:href="#1" y="21.71"></use><text font-size="1.67" x="0" y="25.550999999999995" class="c">|</text><text font-size="1.67" x="27.054" y="25.550999999999995" class="c">|</text><text font-size="1.67" x="29.058" y="25.550999999999995" class="c">Dep.</text><text font-size="1.67" x="34.068" y="25.550999999999995" class="c">variable:</text><text font-size="1.67" x="44.087999999999994" y="25.550999999999995" class="c">Overall</text><text font-size="1.67" x="52.104" y="25.550999999999995" class="c">Rating</text><text font-size="1.67" x="61.12199999999999" y="25.550999999999995" class="c">|</text><use xlink:href="#1" y="26.052"></use><text font-size="1.67" x="0" y="29.893" class="c">|</text><text font-size="1.67" x="27.054" y="29.893" class="c">|</text><text font-size="1.67" x="29.058" y="29.893" class="c">(1)</text><text font-size="1.67" x="44.087999999999994" y="29.893" class="c">|</text><text font-size="1.67" x="46.09199999999999" y="29.893" class="c">(2)</text><text font-size="1.67" x="61.12199999999999" y="29.893" class="c">|</text><use xlink:href="#2" y="30.394"></use><text font-size="1.67" x="0" y="34.235" class="c">|</text><text font-size="1.67" x="2.004" y="34.235" class="c">Handling</text><text font-size="1.67" x="11.021999999999998" y="34.235" class="c">of</text><text font-size="1.67" x="14.027999999999999" y="34.235" class="c">Complaints</text><text font-size="1.67" x="27.054" y="34.235" class="c">|</text><text font-size="1.67" x="29.058" y="34.235" class="c">0.682***</text><text font-size="1.67" x="44.087999999999994" y="34.235" class="c">|</text><text font-size="1.67" x="46.09199999999999" y="34.235" class="c">0.692***</text><text font-size="1.67" x="61.12199999999999" y="34.235" class="c">|</text><use xlink:href="#1" y="34.736"></use><text font-size="1.67" x="0" y="38.577000000000005" class="c">|</text><text font-size="1.67" x="27.054" y="38.577000000000005" class="c">|</text><text font-size="1.67" x="29.058" y="38.577000000000005" class="c">(0.129)</text><text font-size="1.67" x="44.087999999999994" y="38.577000000000005" class="c">|</text><text font-size="1.67" x="46.09199999999999" y="38.577000000000005" class="c">(0.149)</text><text font-size="1.67" x="61.12199999999999" y="38.577000000000005" class="c">|</text><use xlink:href="#1" y="39.078"></use><text font-size="1.67" x="0" y="42.919" class="c">|</text><text font-size="1.67" x="2.004" y="42.919" class="c">No</text><text font-size="1.67" x="5.01" y="42.919" class="c">Special</text><text font-size="1.67" x="13.026" y="42.919" class="c">Priviledges</text><text font-size="1.67" x="27.054" y="42.919" class="c">|</text><text font-size="1.67" x="29.058" y="42.919" class="c">-0.103</text><text font-size="1.67" x="44.087999999999994" y="42.919" class="c">|</text><text font-size="1.67" x="46.09199999999999" y="42.919" class="c">-0.104</text><text font-size="1.67" x="61.12199999999999" y="42.919" class="c">|</text><use xlink:href="#1" y="43.42"></use><text font-size="1.67" x="0" y="47.261" class="c">|</text><text font-size="1.67" x="27.054" y="47.261" class="c">|</text><text font-size="1.67" x="29.058" y="47.261" class="c">(0.129)</text><text font-size="1.67" x="44.087999999999994" y="47.261" class="c">|</text><text font-size="1.67" x="46.09199999999999" y="47.261" class="c">(0.135)</text><text font-size="1.67" x="61.12199999999999" y="47.261" class="c">|</text><use xlink:href="#1" y="47.76199999999999"></use><text font-size="1.67" x="0" y="51.603" class="c">|</text><text font-size="1.67" x="2.004" y="51.603" class="c">Opportunity</text><text font-size="1.67" x="14.027999999999999" y="51.603" class="c">to</text><text font-size="1.67" x="17.034" y="51.603" class="c">Learn</text><text font-size="1.67" x="27.054" y="51.603" class="c">|</text><text font-size="1.67" x="29.058" y="51.603" class="c">0.238+</text><text font-size="1.67" x="44.087999999999994" y="51.603" class="c">|</text><text font-size="1.67" x="46.09199999999999" y="51.603" class="c">0.249</text><text font-size="1.67" x="61.12199999999999" y="51.603" class="c">|</text><use xlink:href="#1" y="52.104"></use><text font-size="1.67" x="0" y="55.945" class="c">|</text><text font-size="1.67" x="27.054" y="55.945" class="c">|</text><text font-size="1.67" x="29.058" y="55.945" class="c">(0.139)</text><text font-size="1.67" x="44.087999999999994" y="55.945" class="c">|</text><text font-size="1.67" x="46.09199999999999" y="55.945" class="c">(0.160)</text><text font-size="1.67" x="61.12199999999999" y="55.945" class="c">|</text><use xlink:href="#1" y="56.446000000000005"></use><text font-size="1.67" x="0" y="60.287" class="c">|</text><text font-size="1.67" x="2.004" y="60.287" class="c">Performance-Based</text><text font-size="1.67" x="20.04" y="60.287" class="c">Raises</text><text font-size="1.67" x="27.054" y="60.287" class="c">|</text><text font-size="1.67" x="44.087999999999994" y="60.287" class="c">|</text><text font-size="1.67" x="46.09199999999999" y="60.287" class="c">-0.033</text><text font-size="1.67" x="61.12199999999999" y="60.287" class="c">|</text><use xlink:href="#1" y="60.788"></use><text font-size="1.67" x="0" y="64.629" class="c">|</text><text font-size="1.67" x="27.054" y="64.629" class="c">|</text><text font-size="1.67" x="44.087999999999994" y="64.629" class="c">|</text><text font-size="1.67" x="46.09199999999999" y="64.629" class="c">(0.202)</text><text font-size="1.67" x="61.12199999999999" y="64.629" class="c">|</text><use xlink:href="#1" y="65.13"></use><text font-size="1.67" x="0" y="68.971" class="c">|</text><text font-size="1.67" x="2.004" y="68.971" class="c">Too</text><text font-size="1.67" x="6.012" y="68.971" class="c">Critical</text><text font-size="1.67" x="27.054" y="68.971" class="c">|</text><text font-size="1.67" x="44.087999999999994" y="68.971" class="c">|</text><text font-size="1.67" x="46.09199999999999" y="68.971" class="c">0.015</text><text font-size="1.67" x="61.12199999999999" y="68.971" class="c">|</text><use xlink:href="#1" y="69.472"></use><text font-size="1.67" x="0" y="73.313" class="c">|</text><text font-size="1.67" x="27.054" y="73.313" class="c">|</text><text font-size="1.67" x="44.087999999999994" y="73.313" class="c">|</text><text font-size="1.67" x="46.09199999999999" y="73.313" class="c">(0.147)</text><text font-size="1.67" x="61.12199999999999" y="73.313" class="c">|</text><use xlink:href="#2" y="73.81400000000001"></use><text font-size="1.67" x="0" y="77.655" class="c">|</text><text font-size="1.67" x="2.004" y="77.655" class="c">+</text><text font-size="1.67" x="4.008" y="77.655" class="c">p</text><text font-size="1.67" x="6.012" y="77.655" class="c">&lt;</text><text font-size="1.67" x="8.016" y="77.655" class="c">0.1,</text><text font-size="1.67" x="13.026" y="77.655" class="c">*</text><text font-size="1.67" x="15.029999999999998" y="77.655" class="c">p</text><text font-size="1.67" x="17.034" y="77.655" class="c">&lt;</text><text font-size="1.67" x="19.037999999999997" y="77.655" class="c">0.05,</text><text font-size="1.67" x="25.05" y="77.655" class="c">**</text><text font-size="1.67" x="28.055999999999997" y="77.655" class="c">p</text><text font-size="1.67" x="30.059999999999995" y="77.655" class="c">&lt;</text><text font-size="1.67" x="32.064" y="77.655" class="c">0.01,</text><text font-size="1.67" x="38.07599999999999" y="77.655" class="c">***</text><text font-size="1.67" x="42.083999999999996" y="77.655" class="c">p</text><text font-size="1.67" x="44.087999999999994" y="77.655" class="c">&lt;</text><text font-size="1.67" x="46.09199999999999" y="77.655" class="c">0.001</text><text font-size="1.67" x="61.12199999999999" y="77.655" class="c">|</text><use xlink:href="#2" y="78.156"></use></svg></svg></g></svg></svg>